# Blender 3.4.1
# www.blender.org
mtllib gel.mtl
o gel
v 0.016068 -0.037110 0.007300
v 0.016068 -0.033057 -0.009042
v 0.016068 -0.033009 0.009141
v 0.016068 -0.040518 0.000209
v 0.016068 -0.039398 -0.004463
v 0.016068 -0.039674 0.003839
v 0.016068 -0.036434 -0.007589
v 0.016068 -0.016288 0.009208
v 0.016068 -0.015499 0.008451
v 0.016068 -0.015483 -0.008222
v 0.016068 -0.016126 -0.009046
v 0.017818 -0.039271 0.004570
v 0.018091 -0.037536 0.006534
v 0.016429 -0.038151 0.005953
v 0.017075 -0.034694 0.006859
v 0.015830 -0.032409 -0.008868
v 0.017511 -0.034705 -0.008476
v 0.015774 -0.036575 -0.007387
v 0.017499 -0.032270 -0.009103
v 0.018147 -0.035456 0.007896
v 0.017532 -0.035846 -0.007809
v 0.017511 -0.037275 -0.006723
v 0.018930 -0.034043 0.008031
v 0.017533 -0.032373 0.009254
v 0.018888 -0.032383 0.008193
v 0.017456 -0.038561 -0.005054
v 0.015797 -0.038543 -0.004061
v 0.017532 -0.039560 -0.003197
v 0.015816 -0.039996 -0.001818
v 0.017570 -0.040273 -0.001056
v 0.016034 -0.040185 0.002152
v 0.017693 -0.040277 0.000854
v 0.017829 -0.039975 0.002578
v 0.016786 -0.022152 0.008010
v 0.017151 -0.016257 0.008911
v 0.017888 -0.016676 0.007850
v 0.018359 -0.016379 0.008255
v 0.017233 -0.015406 0.008140
v 0.017828 -0.016544 0.007777
v 0.019289 -0.015807 0.006543
v 0.018706 -0.015585 -0.002415
v 0.018858 -0.015493 -0.008258
v 0.018515 -0.016677 -0.007564
v 0.018014 -0.016126 -0.007468
v 0.017563 -0.016781 -0.007503
v 0.017870 -0.015858 -0.008701
v 0.018373 -0.021014 -0.008477
v 0.017432 -0.038845 -0.003383
v 0.018534 -0.037877 -0.002128
v 0.017767 -0.039803 -0.001655
v 0.019647 -0.036083 -0.000204
v 0.019006 -0.036089 -0.003829
v 0.017489 -0.019496 0.008621
v 0.019254 -0.022861 0.006686
v 0.017868 -0.017668 0.007258
v 0.017693 -0.039653 -0.000152
v 0.017727 -0.020185 0.003773
v 0.018022 -0.039635 0.001765
v 0.019439 -0.036431 0.003584
v 0.019749 -0.032374 0.006064
v 0.017836 -0.034987 0.007412
v 0.018162 -0.039165 0.003912
v 0.017774 -0.037819 0.005532
v 0.019193 -0.016418 -0.000983
v 0.017712 -0.018782 0.000602
v 0.018308 -0.017952 -0.003213
v 0.018950 -0.021589 -0.008692
v 0.018576 -0.023545 -0.005867
v 0.018669 -0.024981 -0.008805
v 0.019736 -0.016523 0.002974
v 0.017920 -0.020798 -0.003713
v 0.019325 -0.023184 -0.002353
v 0.018856 -0.021208 0.001181
v 0.018882 -0.031007 -0.006305
v 0.017822 -0.036480 0.006802
v 0.017838 -0.031563 -0.008737
v 0.018804 -0.025504 0.000941
v 0.018563 -0.031833 -0.004560
v 0.018501 -0.019202 -0.008654
v 0.018684 -0.016242 -0.007051
v 0.018245 -0.015793 -0.003849
v 0.019308 -0.024475 0.004050
v 0.019392 -0.031322 -0.000791
v 0.019379 -0.016433 0.006101
v 0.018450 -0.032110 -0.002628
v 0.019579 -0.031773 0.002277
v 0.019307 -0.034739 0.001591
v 0.018432 -0.031922 0.008687
v 0.017216 -0.023566 0.008177
v 0.017581 -0.033514 -0.008244
v 0.018258 -0.016315 -0.008082
v 0.018046 -0.035414 -0.007456
v 0.018473 -0.033717 0.008369
v 0.017340 -0.021547 0.008169
v 0.018131 -0.016333 0.008260
v 0.017598 -0.037258 -0.005894
v 0.018031 -0.016847 -0.007554
v 0.017877 -0.016175 -0.007918
v 0.017751 -0.016614 -0.007726
v 0.018303 -0.016266 -0.005850
v 0.017726 -0.016069 0.007996
v 0.017240 -0.019176 0.008147
v 0.018297 -0.016772 0.007698
v 0.018030 -0.016780 0.008034
vn 1.0000 -0.0000 -0.0000
vn 0.0480 -0.7520 0.6574
vn -0.2571 -0.1997 0.9455
vn -0.2277 -0.3236 -0.9184
vn -0.1145 -0.2481 -0.9619
vn -0.7672 -0.3365 0.5460
vn 0.0021 -0.5049 -0.8632
vn 0.0599 -0.6046 -0.7943
vn -0.2036 -0.6835 0.7010
vn -0.5781 0.2458 0.7781
vn 0.6147 -0.0613 0.7864
vn -0.0844 -0.7879 -0.6100
vn -0.2988 -0.8222 -0.4845
vn -0.2766 -0.8508 -0.4468
vn -0.2174 -0.8200 -0.5295
vn -0.0125 -0.9489 -0.3154
vn -0.1389 -0.9895 -0.0393
vn -0.0550 -0.9985 0.0011
vn 0.0752 -0.9832 0.1664
vn -0.2115 -0.8524 0.4782
vn 0.0308 -0.9423 0.3333
vn 0.6107 0.1394 0.7795
vn 0.8973 0.0119 -0.4414
vn 0.7865 -0.1406 0.6014
vn 0.1591 -0.8754 0.4565
vn 0.4328 0.5823 0.6881
vn 0.4962 0.4887 -0.7176
vn 0.6209 0.0754 0.7803
vn -0.1000 -0.9948 -0.0182
vn 0.2025 0.9792 0.0149
vn 0.9636 -0.2666 0.0209
vn -0.5071 -0.3218 -0.7995
vn 0.4807 -0.7499 -0.4544
vn 0.7543 -0.5403 0.3728
vn 0.9405 0.1057 0.3228
vn 0.2356 -0.0192 -0.9717
vn -0.1442 0.0661 -0.9873
vn -0.9890 0.1345 0.0608
vn -0.4220 0.0429 0.9056
vn -0.9825 0.1863 0.0024
vn 0.9835 -0.1802 -0.0134
vn 0.9998 0.0190 0.0042
vn -0.9949 -0.0240 -0.0984
vn -0.9808 0.1722 0.0918
vn -0.9906 -0.0263 -0.1344
vn -0.9945 0.0465 0.0934
vn -0.9907 0.1123 0.0764
vn 0.8175 -0.4217 -0.3922
vn 0.9064 -0.3912 -0.1595
vn 0.8610 0.1772 0.4767
vn 0.9327 -0.3514 0.0809
vn 0.9321 0.2747 -0.2362
vn 0.8754 -0.4798 -0.0589
vn 0.8672 -0.4766 -0.1444
vn 0.8098 -0.3497 0.4711
vn 0.9119 -0.4102 0.0123
vn 0.8207 -0.3273 0.4683
vn 0.8531 -0.5213 0.0198
vn 0.9937 -0.0850 0.0728
vn 0.8007 -0.5858 -0.1253
vn 0.8903 0.3930 -0.2301
vn 0.8853 0.4460 -0.1319
vn 0.9081 0.3945 -0.1406
vn 0.9991 0.0403 0.0117
vn 0.8165 -0.4123 0.4041
vn 0.9219 -0.1201 -0.3684
vn 0.8787 -0.1878 0.4389
vn 0.9896 -0.0200 0.1425
vn 0.9782 -0.0339 -0.2050
vn 0.9528 0.1755 0.2478
vn 0.9974 -0.0255 -0.0667
vn 0.9898 0.0661 0.1264
vn 0.9895 -0.1407 0.0343
vn 0.9656 0.0277 0.2586
vn 0.9808 0.0289 0.1929
vn 0.9017 0.3488 0.2553
vn 0.9873 -0.0031 -0.1590
vn 0.9425 -0.0689 -0.3270
vn 0.9808 -0.1544 0.1195
vn 0.9816 0.0437 0.1861
vn 0.9263 0.3296 -0.1827
vn 0.6871 -0.7198 0.0992
vn 0.9905 0.1158 0.0745
vn 0.9673 0.1868 -0.1713
vn 0.8913 -0.0082 -0.4533
vn 0.9792 0.0815 -0.1856
vn 0.9356 -0.3213 -0.1464
vn 0.9926 0.1133 -0.0440
vn 0.7415 -0.5579 0.3727
vn 0.9985 0.0527 -0.0117
vn 0.9982 0.0461 -0.0374
vn 0.8675 0.4563 0.1980
vn 0.9946 -0.0746 -0.0717
vn 0.9953 -0.0781 -0.0569
vn 0.9960 -0.0233 -0.0860
vn 0.8934 0.1558 0.4213
vn 0.5953 -0.0216 0.8032
vn 0.9152 -0.2076 -0.3455
vn 0.9096 0.1529 -0.3863
vn 0.9851 0.1578 0.0685
vn 0.9476 0.1066 -0.3012
vn 0.8996 -0.4349 -0.0413
vn 0.8880 -0.0605 0.4559
vn 0.8331 -0.5321 0.1508
vn 0.9070 -0.4198 0.0330
vn 0.9001 -0.0750 -0.4292
vn 0.9941 -0.0988 0.0439
vn 0.4978 -0.2213 0.8386
vn 0.5978 -0.0333 0.8010
vn 0.9677 0.0585 -0.2453
vn 0.7460 -0.4875 0.4537
vn 0.8325 -0.4616 -0.3064
vn 0.8172 -0.5101 -0.2685
vn 0.9884 0.0697 0.1351
vn 0.9802 -0.1981 0.0067
vn 0.8025 -0.5087 -0.3119
vn -0.4197 0.0436 -0.9066
vn 0.7545 -0.0221 -0.6559
vn -0.4010 -0.0608 -0.9141
vn -0.2988 0.0565 -0.9527
vn -0.9189 0.0009 -0.3945
vn -0.9017 0.0217 -0.4319
vn -0.0752 0.2098 -0.9748
vn -0.8134 0.5508 0.1874
vn -0.1626 -0.4983 -0.8516
vn -0.4920 -0.4987 -0.7136
vn 0.9025 -0.3608 -0.2351
vn 0.2219 0.3605 -0.9060
vn 0.4584 0.2406 0.8556
vn 0.9467 -0.3084 -0.0927
vn 0.7272 -0.4221 -0.5413
vn 0.9897 -0.0312 -0.1398
vn 0.9023 -0.4296 0.0355
vn 0.8819 -0.4712 0.0133
vn 0.9521 -0.2599 -0.1610
vn 0.9925 -0.1039 -0.0641
vn 0.9505 -0.3011 0.0767
vn 0.9856 0.1019 -0.1346
vn -0.6750 0.1138 -0.7290
vn 0.9883 0.1475 0.0394
vn 0.9804 -0.1702 -0.0990
vn 0.7112 -0.3450 -0.6125
vn 0.8947 0.0339 -0.4453
vn 0.8939 0.1623 -0.4179
vn 0.8896 -0.2183 -0.4013
vn -0.5624 0.0663 -0.8242
vn -0.1136 0.6338 -0.7651
vn 0.6496 -0.2927 -0.7017
vn 0.7712 0.3339 -0.5421
vn 0.8754 0.3159 -0.3659
vn 0.8958 0.2639 -0.3577
vn 0.8738 -0.2502 0.4170
vn 0.6836 -0.6869 0.2466
vn 0.7746 -0.5958 -0.2122
vn 0.9938 -0.1107 -0.0045
vn -0.1248 -0.9683 0.2165
vn -0.5130 0.8583 -0.0086
vn -0.1243 0.9921 -0.0193
vn -0.6858 0.1786 -0.7055
vn 0.6662 -0.3638 0.6510
vn 0.4338 0.8761 0.2102
vn -0.6525 0.7330 -0.1921
vn 0.9507 0.0247 -0.3093
vn 0.9325 0.3410 -0.1189
vn -0.0347 -0.9729 0.2288
vn -0.2228 -0.9520 0.2101
vn 0.7636 0.6448 -0.0337
vn 0.9917 0.0643 0.1112
vn -0.7930 -0.1515 -0.5901
vn -0.7061 -0.1326 0.6956
vn -0.8488 0.1057 0.5180
vn 0.3526 0.0197 0.9356
vn -0.8291 0.1511 -0.5383
vn -0.7830 0.0213 -0.6216
vn -0.6644 0.4092 0.6254
vn -0.0482 -0.2118 0.9761
vn -0.9785 0.2028 0.0378
vn -0.2974 0.0221 0.9545
vn -0.5181 -0.4487 0.7282
vn 0.5383 0.6597 -0.5245
vn 0.0212 -0.8182 0.5745
vn -0.7315 -0.3436 -0.5889
vn -0.6321 -0.2313 0.7396
s 0
f 1//1 2//1 3//1
f 4//1 5//1 6//1
f 2//1 5//1 7//1
f 1//1 5//1 2//1
f 8//1 3//1 9//1
f 6//1 5//1 1//1
f 9//1 2//1 10//1
f 3//1 2//1 9//1
f 10//1 2//1 11//1
f 12//2 13//2 14//2
f 14//3 13//3 15//3
f 16//4 17//4 18//4
f 19//5 17//5 16//5
f 13//6 20//6 15//6
f 17//7 21//7 18//7
f 21//8 22//8 18//8
f 15//9 23//9 24//9
f 20//10 23//10 15//10
f 23//11 25//11 24//11
f 22//12 26//12 18//12
f 18//13 26//13 27//13
f 26//14 28//14 27//14
f 27//15 28//15 29//15
f 28//16 30//16 29//16
f 29//17 30//17 31//17
f 30//18 32//18 31//18
f 32//19 33//19 31//19
f 31//20 12//20 14//20
f 33//21 12//21 31//21
f 25//22 34//22 24//22
f 34//23 35//23 24//23
f 34//24 36//24 35//24
f 36//25 37//25 35//25
f 35//26 37//26 38//26
f 37//27 39//27 38//27
f 39//28 40//28 38//28
f 41//29 42//29 40//29
f 40//30 42//30 38//30
f 41//31 43//31 42//31
f 43//32 44//32 42//32
f 42//33 45//33 46//33
f 44//34 45//34 42//34
f 45//35 47//35 46//35
f 47//36 16//36 46//36
f 47//37 19//37 16//37
f 29//38 31//38 24//38
f 46//39 16//39 42//39
f 31//40 14//40 24//40
f 24//41 14//41 15//41
f 27//42 29//42 18//42
f 42//43 24//43 38//43
f 16//44 24//44 42//44
f 38//45 24//45 35//45
f 18//46 24//46 16//46
f 29//47 24//47 18//47
f 48//48 49//48 50//48
f 51//49 49//49 52//49
f 53//50 54//50 55//50
f 50//51 49//51 56//51
f 55//52 54//52 57//52
f 49//53 51//53 56//53
f 56//54 51//54 58//54
f 59//55 60//55 61//55
f 51//56 59//56 58//56
f 62//57 59//57 63//57
f 64//58 65//58 66//58
f 67//59 68//59 69//59
f 70//60 65//60 64//60
f 71//61 72//61 68//61
f 71//62 73//62 72//62
f 65//63 73//63 71//63
f 68//64 74//64 69//64
f 63//65 59//65 75//65
f 69//66 74//66 76//66
f 59//67 61//67 75//67
f 77//68 72//68 73//68
f 72//69 78//69 68//69
f 79//70 68//70 67//70
f 80//71 68//71 79//71
f 81//72 66//72 80//72
f 80//73 66//73 71//73
f 71//74 68//74 80//74
f 68//75 78//75 74//75
f 73//76 57//76 82//76
f 82//77 77//77 73//77
f 64//78 66//78 81//78
f 66//79 65//79 71//79
f 77//80 83//80 72//80
f 57//81 54//81 82//81
f 84//82 65//82 70//82
f 78//83 85//83 52//83
f 52//84 85//84 51//84
f 51//85 85//85 83//85
f 82//86 86//86 77//86
f 84//87 57//87 65//87
f 77//88 86//88 83//88
f 55//89 57//89 84//89
f 60//90 82//90 54//90
f 60//91 86//91 82//91
f 57//92 73//92 65//92
f 83//93 86//93 87//93
f 60//94 87//94 86//94
f 59//95 87//95 60//95
f 88//96 60//96 89//96
f 89//97 60//97 54//97
f 76//98 74//98 90//98
f 91//99 80//99 79//99
f 51//100 87//100 59//100
f 90//101 78//101 92//101
f 74//102 78//102 90//102
f 93//103 60//103 88//103
f 61//104 60//104 93//104
f 58//105 59//105 62//105
f 85//106 72//106 83//106
f 78//107 72//107 85//107
f 94//108 54//108 53//108
f 89//109 54//109 94//109
f 78//110 52//110 92//110
f 95//111 55//111 84//111
f 92//112 52//112 96//112
f 96//113 52//113 48//113
f 87//114 51//114 83//114
f 53//115 55//115 95//115
f 52//116 49//116 48//116
f 47//117 69//117 76//117
f 47//118 76//118 19//118
f 47//119 79//119 67//119
f 47//120 67//120 69//120
f 79//121 97//121 91//121
f 47//122 97//122 79//122
f 47//123 45//123 97//123
f 98//124 45//124 44//124
f 98//125 97//125 45//125
f 98//126 91//126 97//126
f 99//127 98//127 44//127
f 99//128 44//128 43//128
f 91//129 98//129 99//129
f 92//130 96//130 22//130
f 92//131 22//131 21//131
f 19//132 90//132 17//132
f 58//133 62//133 33//133
f 58//134 33//134 32//134
f 58//135 32//135 56//135
f 56//136 32//136 30//136
f 56//137 30//137 50//137
f 50//138 28//138 48//138
f 93//139 88//139 25//139
f 48//140 28//140 26//140
f 96//141 26//141 22//141
f 92//142 21//142 17//142
f 90//143 92//143 17//143
f 75//144 61//144 20//144
f 76//145 90//145 19//145
f 25//146 23//146 93//146
f 23//147 61//147 93//147
f 23//148 20//148 61//148
f 75//149 20//149 13//149
f 63//150 75//150 13//150
f 63//151 13//151 12//151
f 62//152 63//152 12//152
f 62//153 12//153 33//153
f 50//154 30//154 28//154
f 96//155 48//155 26//155
f 100//156 99//156 43//156
f 100//157 91//157 99//157
f 100//158 80//158 91//158
f 40//159 39//159 101//159
f 101//160 84//160 40//160
f 95//161 84//161 101//161
f 100//162 81//162 80//162
f 41//163 64//163 81//163
f 70//164 64//164 41//164
f 43//165 81//165 100//165
f 43//166 41//166 81//166
f 41//167 40//167 70//167
f 40//168 84//168 70//168
f 89//169 25//169 88//169
f 89//170 34//170 25//170
f 34//171 53//171 102//171
f 102//172 103//172 36//172
f 102//173 36//173 34//173
f 53//174 104//174 103//174
f 53//175 103//175 102//175
f 94//176 53//176 34//176
f 53//177 95//177 104//177
f 94//178 34//178 89//178
f 101//179 39//179 37//179
f 103//180 101//180 37//180
f 103//181 37//181 36//181
f 104//182 101//182 103//182
f 95//183 101//183 104//183
